<svg width="66" height="66" viewBox="0 0 66 66" fill="none" xmlns="http://www.w3.org/2000/svg">
<circle cx="33" cy="33" r="33" fill="#D1AD54"/>
<g clip-path="url(#clip0_170_154)">
<path d="M33 12C27.3011 12 26.5845 12.0263 24.3454 12.126C22.1063 12.231 20.5811 12.5827 19.245 13.1025C17.8428 13.6284 16.5731 14.4554 15.5254 15.5254C14.4554 16.5731 13.6284 17.8428 13.1025 19.245C12.5827 20.5785 12.2284 22.1062 12.126 24.3375C12.0263 26.5819 12 27.2959 12 33.0026C12 38.7041 12.0263 39.4181 12.126 41.6573C12.231 43.8938 12.5827 45.4189 13.1025 46.755C13.6406 48.1357 14.3573 49.3065 15.5254 50.4746C16.6909 51.6427 17.8616 52.362 19.2424 52.8975C20.5811 53.4172 22.1036 53.7716 24.3401 53.874C26.5819 53.9737 27.2959 54 33 54C38.7041 54 39.4155 53.9737 41.6573 53.874C43.8911 53.769 45.4215 53.4172 46.7576 52.8975C48.1588 52.3713 49.4276 51.5443 50.4746 50.4746C51.6427 49.3065 52.3594 48.1357 52.8975 46.755C53.4146 45.4189 53.769 43.8938 53.874 41.6573C53.9737 39.4181 54 38.7041 54 33C54 27.2959 53.9737 26.5819 53.874 24.3401C53.769 22.1063 53.4146 20.5785 52.8975 19.245C52.3716 17.8428 51.5446 16.5731 50.4746 15.5254C49.4269 14.4554 48.1572 13.6284 46.755 13.1025C45.4162 12.5827 43.8885 12.2284 41.6546 12.126C39.4129 12.0263 38.7015 12 32.9948 12H33ZM31.1179 15.7853H33.0026C38.6096 15.7853 39.2737 15.8036 41.4866 15.906C43.5341 15.9979 44.6471 16.3418 45.3874 16.6279C46.3665 17.0085 47.0674 17.4652 47.8024 18.2002C48.5374 18.9352 48.9915 19.6335 49.3721 20.6153C49.6609 21.3529 50.0021 22.4659 50.094 24.5134C50.1964 26.7263 50.2174 27.3904 50.2174 32.9948C50.2174 38.5991 50.1964 39.2659 50.094 41.4787C50.0021 43.5262 49.6583 44.6366 49.3721 45.3769C49.0331 46.2875 48.496 47.1115 47.7997 47.7892C47.0647 48.5242 46.3665 48.9784 45.3848 49.359C44.6498 49.6478 43.5367 49.989 41.4866 50.0835C39.2737 50.1833 38.6096 50.2069 33.0026 50.2069C27.3956 50.2069 26.7289 50.1833 24.516 50.0835C22.4685 49.989 21.3581 49.6478 20.6179 49.359C19.7066 49.021 18.8817 48.4849 18.2029 47.7892C17.5053 47.111 16.9674 46.2861 16.6279 45.3742C16.3418 44.6366 15.9979 43.5236 15.906 41.4761C15.8063 39.2633 15.7853 38.5991 15.7853 32.9895C15.7853 27.3799 15.8063 26.721 15.906 24.5081C16.0005 22.4606 16.3418 21.3476 16.6305 20.6074C17.0111 19.6283 17.4679 18.9274 18.2029 18.1924C18.9379 17.4574 19.6361 17.0033 20.6179 16.6226C21.3581 16.3339 22.4685 15.9926 24.516 15.8981C26.4533 15.8089 27.204 15.7826 31.1179 15.78V15.7853ZM44.2114 19.2712C43.8804 19.2712 43.5528 19.3364 43.247 19.4631C42.9413 19.5897 42.6635 19.7753 42.4295 20.0093C42.1955 20.2433 42.0098 20.5211 41.8832 20.8269C41.7566 21.1326 41.6914 21.4603 41.6914 21.7913C41.6914 22.1222 41.7566 22.4499 41.8832 22.7556C42.0098 23.0614 42.1955 23.3392 42.4295 23.5732C42.6635 23.8072 42.9413 23.9928 43.247 24.1194C43.5528 24.2461 43.8804 24.3113 44.2114 24.3113C44.8797 24.3113 45.5207 24.0458 45.9933 23.5732C46.4659 23.1006 46.7314 22.4596 46.7314 21.7913C46.7314 21.1229 46.4659 20.4819 45.9933 20.0093C45.5207 19.5367 44.8797 19.2712 44.2114 19.2712ZM33.0026 22.2165C31.5722 22.1942 30.1516 22.4566 28.8236 22.9886C27.4955 23.5206 26.2866 24.3114 25.2671 25.3151C24.2477 26.3188 23.4381 27.5152 22.8855 28.8348C22.3328 30.1544 22.0482 31.5707 22.0482 33.0013C22.0482 34.4319 22.3328 35.8482 22.8855 37.1678C23.4381 38.4874 24.2477 39.6838 25.2671 40.6875C26.2866 41.6912 27.4955 42.482 28.8236 43.014C30.1516 43.546 31.5722 43.8084 33.0026 43.7861C35.8338 43.742 38.5341 42.5863 40.5206 40.5685C42.5071 38.5508 43.6205 35.8328 43.6205 33.0013C43.6205 30.1698 42.5071 27.4518 40.5206 25.4341C38.5341 23.4164 35.8338 22.2607 33.0026 22.2165ZM33.0026 25.9991C33.922 25.9991 34.8324 26.1802 35.6817 26.532C36.5311 26.8839 37.3029 27.3995 37.953 28.0496C38.6031 28.6997 39.1188 29.4715 39.4706 30.3209C39.8224 31.1703 40.0035 32.0806 40.0035 33C40.0035 33.9194 39.8224 34.8297 39.4706 35.6791C39.1188 36.5285 38.6031 37.3003 37.953 37.9504C37.3029 38.6005 36.5311 39.1161 35.6817 39.468C34.8324 39.8198 33.922 40.0009 33.0026 40.0009C31.1459 40.0009 29.3652 39.2633 28.0523 37.9504C26.7393 36.6374 26.0018 34.8567 26.0018 33C26.0018 31.1433 26.7393 29.3626 28.0523 28.0496C29.3652 26.7367 31.1459 25.9991 33.0026 25.9991Z" fill="#5E1E13"/>
</g>
<defs>
<clipPath id="clip0_170_154">
<rect width="42" height="42" fill="white" transform="translate(12 12)"/>
</clipPath>
</defs>
</svg>
