<svg width="66" height="66" viewBox="0 0 66 66" fill="none" xmlns="http://www.w3.org/2000/svg">
<circle cx="33" cy="33" r="33" fill="#D1AD54"/>
<g clip-path="url(#clip0_170_150)">
<path d="M47.7026 18.1059C45.7775 16.1621 43.4845 14.6211 40.9575 13.5728C38.4305 12.5245 35.72 11.9899 32.9842 12.0001C21.5209 12.0001 12.1785 21.3399 12.168 32.8059C12.168 36.4783 13.1288 40.0509 14.9426 43.214L12 54.0001L23.0355 51.1074C26.087 52.7723 29.5081 53.6433 32.9842 53.6405H32.9948C44.4608 53.6405 53.8005 44.3008 53.811 32.8243C53.8133 30.0892 53.2746 27.3806 52.2258 24.8546C51.177 22.3286 49.6415 20.035 47.7026 18.1059ZM32.9842 50.1178C29.8846 50.1153 26.8423 49.2813 24.1748 47.7028L23.5447 47.3248L16.998 49.0415L18.7462 42.6549L18.3368 41.996C16.6037 39.2406 15.6872 36.0505 15.6934 32.7954C15.6934 23.2771 23.4555 15.5124 32.9948 15.5124C35.2673 15.5083 37.5182 15.9541 39.6177 16.8241C41.7171 17.6941 43.6236 18.971 45.2272 20.5813C46.8361 22.1855 48.1116 24.0923 48.9802 26.1918C49.8488 28.2912 50.2934 30.5418 50.2883 32.8138C50.2778 42.3661 42.5156 50.1178 32.9842 50.1178ZM42.4736 37.166C41.9565 36.9061 39.4024 35.6488 38.922 35.4703C38.4442 35.2996 38.0951 35.2104 37.7539 35.7301C37.4047 36.2473 36.4073 37.4259 36.108 37.7645C35.8088 38.1136 35.499 38.153 34.9792 37.8958C34.4621 37.6333 32.7848 37.0873 30.8003 35.3101C29.2515 33.932 28.2146 32.2258 27.9049 31.7086C27.6056 31.1889 27.876 30.9106 28.1359 30.6508C28.3642 30.4198 28.653 30.0418 28.9129 29.7425C29.1754 29.4433 29.262 29.2228 29.4326 28.8763C29.6032 28.5245 29.5219 28.2253 29.3932 27.9654C29.262 27.7055 28.2251 25.1409 27.7867 24.1066C27.3667 23.0855 26.9389 23.2273 26.6186 23.2141C26.3194 23.1958 25.9703 23.1958 25.6211 23.1958C25.3575 23.2025 25.0981 23.2635 24.8592 23.3751C24.6202 23.4867 24.4069 23.6463 24.2325 23.8441C23.7547 24.3639 22.4186 25.6213 22.4186 28.1859C22.4186 30.7505 24.2824 33.2154 24.5449 33.5645C24.8021 33.9136 28.2041 39.161 33.4252 41.4185C34.659 41.9566 35.6303 42.2743 36.3889 42.5158C37.6358 42.9148 38.7619 42.8544 39.6596 42.7258C40.6571 42.5735 42.7335 41.4658 43.1719 40.2504C43.6024 39.0324 43.6024 37.9929 43.4711 37.775C43.3425 37.5545 42.9934 37.4259 42.4736 37.166Z" fill="#5E1E13"/>
</g>
<defs>
<clipPath id="clip0_170_150">
<rect width="42" height="42" fill="white" transform="translate(12 12)"/>
</clipPath>
</defs>
</svg>
