<svg width="66" height="66" viewBox="0 0 66 66" fill="none" xmlns="http://www.w3.org/2000/svg">
<circle cx="33" cy="33" r="33" fill="#D1AD54"/>
<g clip-path="url(#clip0_170_146)">
<path d="M35.625 12H40.8225C41.2005 13.8769 42.24 16.2446 44.0644 18.594C45.8494 20.8961 48.2171 22.5 51.375 22.5V27.75C46.7734 27.75 43.3163 25.6132 40.875 22.9489V40.875C40.875 43.4709 40.1052 46.0085 38.663 48.1669C37.2208 50.3253 35.171 52.0075 32.7727 53.0009C30.3744 53.9943 27.7354 54.2542 25.1894 53.7478C22.6434 53.2414 20.3048 51.9913 18.4692 50.1558C16.6337 48.3202 15.3836 45.9816 14.8772 43.4356C14.3708 40.8896 14.6307 38.2506 15.6241 35.8523C16.6175 33.454 18.2998 31.4042 20.4581 29.962C22.6165 28.5198 25.1541 27.75 27.75 27.75V33C26.1925 33 24.6699 33.4619 23.3749 34.3272C22.0799 35.1925 21.0705 36.4224 20.4745 37.8614C19.8784 39.3003 19.7225 40.8837 20.0263 42.4113C20.3302 43.9389 21.0802 45.3421 22.1815 46.4435C23.2829 47.5448 24.6861 48.2948 26.2137 48.5987C27.7413 48.9025 29.3247 48.7466 30.7636 48.1506C32.2026 47.5545 33.4325 46.5452 34.2978 45.2501C35.1631 43.9551 35.625 42.4325 35.625 40.875V12Z" fill="#5E1E13"/>
</g>
<defs>
<clipPath id="clip0_170_146">
<rect width="42" height="42" fill="white" transform="translate(12 12)"/>
</clipPath>
</defs>
</svg>
