<svg width="238" height="93" viewBox="0 0 238 93" fill="none" xmlns="http://www.w3.org/2000/svg">
<g clip-path="url(#clip0_95_12)">
<path d="M1.38184 14.8606L27.3256 36.7521L84.9894 14.8606V70.3635L27.3256 91.4832L3.28049 72.1658L1.38184 15.9581L19.5572 14.8606" stroke="#D1AD54" stroke-width="6" stroke-miterlimit="10"/>
<path d="M44.7607 14.8606H84.989" stroke="#D1AD54" stroke-width="6" stroke-miterlimit="10"/>
<path d="M27.3252 36.752V90.2651" stroke="#D1AD54" stroke-width="6" stroke-miterlimit="10"/>
<path d="M83.643 54.78L27.3252 75.1369" stroke="#D1AD54" stroke-width="6" stroke-miterlimit="10"/>
<path d="M83.643 35.8464L27.3252 56.0695" stroke="#D1AD54" stroke-width="6" stroke-miterlimit="10"/>
<path d="M41.5882 6.84354C42.6088 8.5879 43.1481 10.5776 43.1481 12.6075C43.1481 19.4378 37.0421 24.9341 30.1249 23.7027C25.5922 22.8953 21.9643 19.2013 21.171 14.5928C19.9587 7.55735 25.3605 1.34277 32.0726 1.34277C32.1885 1.34277 32.3044 1.34277 32.4203 1.34723" stroke="#D1AD54" stroke-width="6" stroke-miterlimit="10"/>
<path d="M116.571 45.9826C116.116 45.9826 115.644 45.9513 115.158 45.8889C114.672 45.8264 114.191 45.7238 113.723 45.5766C113.25 45.4294 112.809 45.2241 112.399 44.9609C111.989 44.6977 111.646 44.372 111.374 43.9884C110.995 43.4619 110.585 42.7526 110.144 41.8559C109.702 40.9592 109.248 39.942 108.775 38.8088C108.303 37.6757 107.831 36.4443 107.349 35.1238C106.872 33.8033 106.413 32.4559 105.981 31.0908C105.549 29.7212 105.139 28.3605 104.751 27.0087C104.363 25.6569 104.029 24.3766 103.748 23.172C103.467 21.9675 103.249 20.87 103.088 19.8796C102.928 18.8892 102.848 18.0728 102.848 17.4214C102.848 17.2519 102.848 17.0734 102.861 16.8861C102.87 16.6987 102.897 16.5247 102.941 16.3507C103.062 15.9046 103.391 15.4986 103.922 15.1462C104.452 14.7892 105.058 14.4814 105.731 14.2182C106.409 13.955 107.086 13.7542 107.773 13.6159C108.454 13.4776 108.994 13.4062 109.39 13.4062C110.255 13.4062 110.919 13.6382 111.383 14.1022C111.846 14.5662 112.185 15.2086 112.399 16.025C112.898 18.0058 113.388 19.9733 113.856 21.9362C114.329 23.8992 114.85 25.8532 115.43 27.8028C115.461 27.8965 115.514 28.075 115.59 28.3382C115.666 28.6014 115.759 28.8735 115.875 29.1635C115.991 29.449 116.111 29.6989 116.241 29.9175C116.37 30.1361 116.504 30.2431 116.642 30.2431C116.78 30.2431 116.905 30.1138 117.016 29.8595C117.132 29.6052 117.235 29.3107 117.324 28.9761C117.413 28.6415 117.493 28.3248 117.551 28.0125C117.613 27.7047 117.649 27.5039 117.667 27.4102C117.925 25.9871 118.157 24.5639 118.362 23.1319C118.567 21.7042 118.754 20.2677 118.919 18.8312C119.058 17.7783 119.213 16.9173 119.387 16.2436C119.561 15.57 119.837 15.0435 120.221 14.6554C120.6 14.2673 121.112 13.9996 121.758 13.8435C122.405 13.6873 123.265 13.6115 124.343 13.6115C124.798 13.6115 125.311 13.6249 125.881 13.6561C126.452 13.6873 126.986 13.7855 127.486 13.9461C127.985 14.1067 128.408 14.3654 128.751 14.7223C129.095 15.0792 129.264 15.5744 129.264 16.2079C129.264 16.6585 129.219 17.3143 129.126 18.1798C129.037 19.0453 128.907 20.0446 128.751 21.1823C128.595 22.3199 128.404 23.5468 128.194 24.8673C127.98 26.1878 127.753 27.5307 127.512 28.8914C127.267 30.2521 127.022 31.5949 126.772 32.9155C126.523 34.236 126.278 35.4629 126.042 36.5916C125.805 37.7203 125.582 38.7151 125.369 39.5717C125.155 40.4283 124.972 41.0752 124.82 41.5079C124.548 42.2975 124.103 42.9757 123.488 43.5467C122.873 44.1178 122.182 44.5817 121.415 44.9386C120.649 45.2955 119.837 45.5587 118.986 45.7283C118.135 45.8978 117.328 45.9826 116.571 45.9826Z" fill="#D1AD54"/>
<path d="M142.87 44.7066C141.489 44.7066 140.227 44.4925 139.086 44.0686C137.946 43.6448 136.938 43.0604 136.056 42.3198C135.173 41.5792 134.407 40.7048 133.756 39.701C133.101 38.6972 132.562 37.6176 132.138 36.4666C131.715 35.3156 131.398 34.111 131.193 32.8619C130.988 31.6083 130.886 30.3725 130.886 29.1501C130.886 27.9277 130.988 26.6652 131.193 25.4071C131.398 24.149 131.71 22.9311 132.129 21.7533C132.548 20.58 133.079 19.4736 133.725 18.4385C134.371 17.4035 135.138 16.4979 136.025 15.7261C136.912 14.9543 137.928 14.3475 139.069 13.9059C140.21 13.4642 141.475 13.2456 142.875 13.2456C144.274 13.2456 145.571 13.4642 146.726 13.897C147.88 14.3297 148.91 14.923 149.814 15.6725C150.719 16.422 151.499 17.3054 152.163 18.327C152.823 19.3486 153.371 20.4461 153.803 21.6194C154.236 22.7928 154.561 24.0152 154.77 25.2822C154.984 26.5492 155.091 27.8117 155.091 29.0609C155.091 30.31 154.984 31.5458 154.77 32.8039C154.556 34.062 154.231 35.2754 153.79 36.4309C153.349 37.5909 152.796 38.6705 152.127 39.6787C151.459 40.6825 150.675 41.5614 149.77 42.3109C148.865 43.0604 147.84 43.6493 146.694 44.0731C145.549 44.4969 144.274 44.7111 142.879 44.7111L142.87 44.7066ZM142.96 34.9453C143.597 34.9453 144.118 34.7535 144.519 34.3653C144.921 33.9772 145.242 33.5043 145.478 32.9377C145.714 32.3756 145.874 31.7733 145.968 31.1398C146.057 30.5063 146.106 29.9397 146.106 29.449C146.106 28.985 146.062 28.4229 145.968 27.7582C145.879 27.0934 145.718 26.4466 145.491 25.822C145.264 25.1974 144.952 24.662 144.555 24.2204C144.158 23.7787 143.659 23.5601 143.049 23.5601C142.438 23.5601 141.921 23.7564 141.489 24.1535C141.056 24.546 140.709 25.0368 140.45 25.6123C140.192 26.1923 140 26.8035 139.88 27.4459C139.759 28.0883 139.697 28.6549 139.697 29.1501C139.697 29.4758 139.719 29.8416 139.764 30.252C139.809 30.6625 139.884 31.0818 139.991 31.5146C140.098 31.9473 140.232 32.3711 140.401 32.7771C140.566 33.1876 140.771 33.5534 141.003 33.8791C141.239 34.2047 141.52 34.4635 141.845 34.6553C142.171 34.8472 142.541 34.9453 142.951 34.9453H142.96Z" fill="#D1AD54"/>
<path d="M167.892 45.193C167.496 45.193 167.072 45.1796 166.618 45.1573C166.163 45.135 165.718 45.0725 165.285 44.9699C164.853 44.8673 164.447 44.7201 164.077 44.5193C163.703 44.3186 163.395 44.033 163.155 43.6627C162.807 43.1229 162.437 42.4047 162.049 41.5079C161.662 40.6112 161.274 39.594 160.886 38.4609C160.498 37.3233 160.115 36.1053 159.736 34.8071C159.357 33.5089 158.996 32.1838 158.653 30.8321C158.31 29.4803 157.994 28.133 157.695 26.7991C157.396 25.4607 157.142 24.1937 156.933 22.9981C156.719 21.798 156.554 20.705 156.434 19.719C156.313 18.7286 156.251 17.9033 156.251 17.2385C156.251 16.9932 156.264 16.7032 156.287 16.382C156.309 16.0563 156.358 15.7797 156.434 15.5477C156.585 15.115 156.924 14.7402 157.45 14.4235C157.976 14.1067 158.56 13.8435 159.206 13.6338C159.852 13.4241 160.498 13.268 161.145 13.1565C161.791 13.0494 162.312 12.9958 162.705 12.9958C163.663 12.9958 164.394 13.2412 164.902 13.7275C165.41 14.2138 165.749 14.9231 165.918 15.8511C166.297 17.8453 166.662 19.835 167.01 21.8203C167.358 23.8055 167.763 25.7908 168.218 27.7672C168.231 27.8609 168.271 28.0438 168.334 28.3248C168.396 28.6014 168.472 28.887 168.574 29.1725C168.672 29.458 168.779 29.7168 168.895 29.9487C169.011 30.1807 169.136 30.2967 169.27 30.2967C169.403 30.2967 169.537 30.1763 169.671 29.9354C169.8 29.6945 169.916 29.4179 170.023 29.1011C170.13 28.7843 170.219 28.481 170.295 28.1865C170.371 27.8921 170.415 27.7003 170.433 27.6066C170.54 27.1872 170.66 26.6295 170.798 25.9247C170.937 25.2198 171.084 24.4524 171.244 23.6182C171.405 22.7839 171.578 21.9273 171.77 21.0574C171.962 20.183 172.149 19.3621 172.34 18.5858C172.532 17.814 172.724 17.127 172.92 16.5337C173.116 15.9403 173.317 15.5165 173.513 15.2711C173.709 15.0079 173.949 14.8027 174.23 14.6554C174.511 14.5082 174.81 14.4012 175.131 14.3298C175.451 14.2584 175.777 14.2182 176.111 14.2004C176.445 14.187 176.757 14.1781 177.047 14.1781C177.502 14.1781 178.054 14.1915 178.701 14.2227C179.347 14.2539 179.966 14.3521 180.559 14.5127C181.152 14.6733 181.66 14.932 182.088 15.289C182.511 15.6459 182.725 16.1455 182.725 16.7969C182.725 17.1984 182.658 17.8274 182.52 18.6751C182.382 19.5272 182.204 20.5131 181.985 21.6418C181.767 22.7705 181.508 23.9974 181.21 25.3268C180.916 26.6563 180.599 28.0036 180.265 29.3732C179.931 30.7429 179.592 32.0946 179.249 33.433C178.906 34.7714 178.58 36.0072 178.268 37.1448C177.956 38.2824 177.667 39.2773 177.404 40.1383C177.136 40.9949 176.913 41.6329 176.731 42.0522C176.307 43.0248 175.643 43.7297 174.747 44.1624C174.248 44.4078 173.709 44.6041 173.143 44.7424C172.577 44.8807 171.993 44.9877 171.4 45.0547C170.807 45.126 170.215 45.1662 169.622 45.184C169.029 45.1974 168.459 45.2063 167.915 45.2063L167.892 45.193Z" fill="#D1AD54"/>
<path d="M195.9 44.7066C194.518 44.7066 193.257 44.4925 192.116 44.0687C190.975 43.6448 189.968 43.0604 189.085 42.3198C188.203 41.5793 187.436 40.7049 186.785 39.7011C186.13 38.6973 185.591 37.6176 185.167 36.4666C184.744 35.3156 184.428 34.1111 184.223 32.8619C184.018 31.6083 183.915 30.3725 183.915 29.1501C183.915 27.9277 184.018 26.6652 184.223 25.4071C184.428 24.149 184.74 22.9311 185.159 21.7533C185.577 20.58 186.108 19.4736 186.754 18.4386C187.4 17.4036 188.167 16.4979 189.054 15.7261C189.941 14.9543 190.957 14.3476 192.098 13.9059C193.239 13.4642 194.505 13.2456 195.904 13.2456C197.304 13.2456 198.601 13.4642 199.755 13.897C200.909 14.3297 201.939 14.9231 202.844 15.6726C203.748 16.4221 204.528 17.3054 205.192 18.327C205.852 19.3487 206.4 20.4462 206.833 21.6195C207.265 22.7928 207.59 24.0152 207.8 25.2822C208.014 26.5492 208.121 27.8117 208.121 29.0609C208.121 30.3101 208.014 31.5458 207.8 32.8039C207.586 34.062 207.26 35.2755 206.819 36.431C206.378 37.5909 205.825 38.6705 205.157 39.6788C204.488 40.6826 203.704 41.5614 202.799 42.3109C201.894 43.0604 200.869 43.6493 199.724 44.0731C198.578 44.497 197.304 44.7111 195.909 44.7111L195.9 44.7066ZM194.852 9.73907C194.563 9.73907 194.273 9.6543 193.988 9.48477C193.698 9.31524 193.44 9.09664 193.212 8.83343C192.985 8.57021 192.802 8.28469 192.664 7.97686C192.526 7.66903 192.459 7.36566 192.459 7.07122C192.459 6.85707 192.526 6.67862 192.664 6.53586C192.833 6.36633 193.114 6.09419 193.506 5.72391C193.903 5.35362 194.349 4.93426 194.852 4.47029C195.356 4.00631 195.882 3.53342 196.435 3.04267C196.987 2.55639 197.518 2.11027 198.017 1.70875C198.516 1.30723 198.953 0.972637 199.327 0.713882C199.697 0.450666 199.96 0.321289 200.112 0.321289C200.477 0.321289 200.838 0.446205 201.195 0.691576C201.551 0.936947 201.872 1.24478 202.153 1.60614C202.434 1.9675 202.661 2.3601 202.835 2.775C203.009 3.19436 203.098 3.57803 203.098 3.93493C203.098 4.36768 202.928 4.7335 202.598 5.02349C202.175 5.38039 201.667 5.75068 201.083 6.13435C200.499 6.52248 199.893 6.90615 199.274 7.29428C198.65 7.68241 198.039 8.05716 197.437 8.41853C196.836 8.77989 196.301 9.11895 195.833 9.42678C195.512 9.62753 195.187 9.73014 194.852 9.73014V9.73907ZM195.993 34.9453C196.631 34.9453 197.152 34.7535 197.553 34.3654C197.954 33.9772 198.275 33.5043 198.511 32.9378C198.748 32.3756 198.908 31.7734 199.002 31.1399C199.091 30.5064 199.14 29.9398 199.14 29.449C199.14 28.9851 199.095 28.4229 199.002 27.7582C198.913 27.0935 198.752 26.4466 198.525 25.822C198.298 25.1974 197.986 24.6621 197.589 24.2204C197.192 23.7787 196.693 23.5601 196.082 23.5601C195.472 23.5601 194.955 23.7564 194.523 24.1535C194.09 24.5461 193.743 25.0368 193.484 25.6123C193.226 26.1923 193.034 26.8035 192.914 27.4459C192.793 28.0883 192.731 28.6549 192.731 29.1501C192.731 29.4758 192.753 29.8416 192.798 30.2521C192.842 30.6625 192.918 31.0819 193.025 31.5146C193.132 31.9474 193.266 32.3712 193.435 32.7772C193.6 33.1876 193.805 33.5534 194.037 33.8791C194.273 34.2048 194.554 34.4635 194.879 34.6554C195.204 34.8472 195.574 34.9453 195.984 34.9453H195.993Z" fill="#D1AD54"/>
<path d="M221.888 43.3593C221.719 43.3593 221.531 43.3415 221.322 43.3102C221.113 43.279 220.907 43.221 220.711 43.1407C220.515 43.0604 220.346 42.9489 220.203 42.815C220.061 42.6812 219.972 42.5116 219.945 42.3109C219.936 42.2752 219.936 42.2306 219.936 42.1726C219.936 42.1146 219.931 42.0611 219.918 42.0075C219.909 41.954 219.891 41.9049 219.878 41.8648C219.86 41.8201 219.829 41.7934 219.789 41.78C219.7 41.7889 219.602 41.8603 219.499 41.9986C219.397 42.1369 219.258 42.293 219.089 42.4581C218.915 42.6276 218.692 42.7793 218.416 42.9176C218.14 43.0559 217.774 43.1273 217.32 43.1273C216.794 43.1273 216.317 43.0425 215.893 42.8686C215.47 42.699 215.091 42.4626 214.761 42.1681C214.432 41.8737 214.146 41.5257 213.91 41.1287C213.669 40.7316 213.473 40.3122 213.322 39.8616C213.166 39.4111 213.054 38.9515 212.979 38.4742C212.903 38.0013 212.867 37.5329 212.867 37.0778C212.867 36.712 212.894 36.3328 212.947 35.9402C213.001 35.5431 213.086 35.155 213.201 34.7758C213.317 34.3966 213.464 34.0307 213.647 33.6828C213.83 33.3348 214.048 33.0359 214.311 32.7727C214.57 32.5139 214.868 32.3042 215.212 32.1525C215.55 32.0009 215.938 31.9206 216.375 31.9206C216.669 31.9206 216.959 31.9607 217.235 32.0455C217.516 32.1258 217.779 32.2195 218.028 32.3221C218.278 32.4247 218.501 32.5184 218.706 32.5987C218.911 32.679 219.076 32.7236 219.209 32.7236C219.285 32.7236 219.348 32.6968 219.388 32.6388C219.428 32.5808 219.45 32.5139 219.45 32.4336C219.45 32.2551 219.432 32.0722 219.397 31.8893C219.361 31.702 219.321 31.5146 219.281 31.3272C219.241 31.1398 219.2 30.948 219.165 30.7562C219.129 30.5643 219.111 30.368 219.111 30.1673C219.111 30.0334 219.125 29.8817 219.147 29.7122C219.174 29.5427 219.214 29.3999 219.267 29.2795C219.365 29.0564 219.544 28.878 219.798 28.7397C220.052 28.6014 220.337 28.4898 220.645 28.4095C220.952 28.3292 221.26 28.2712 221.572 28.24C221.879 28.2088 222.138 28.1909 222.352 28.1909C222.525 28.1909 222.708 28.1954 222.9 28.2088C223.087 28.2177 223.27 28.2489 223.435 28.298C223.653 28.3604 223.836 28.53 223.987 28.8066C224.139 29.0832 224.264 29.4133 224.362 29.8014C224.46 30.1896 224.535 30.6134 224.593 31.0684C224.651 31.5235 224.691 31.9696 224.714 32.4024C224.736 32.8351 224.754 33.2277 224.763 33.5891C224.772 33.9504 224.772 34.227 224.772 34.4189C224.772 34.6955 224.767 35.0524 224.754 35.4762C224.745 35.9045 224.727 36.3685 224.7 36.8726C224.674 37.3767 224.642 37.8942 224.602 38.4296C224.562 38.9649 224.513 39.478 224.455 39.9643C224.397 40.455 224.33 40.9011 224.255 41.3071C224.179 41.7131 224.09 42.0388 223.992 42.2797C223.907 42.4804 223.787 42.65 223.635 42.7883C223.479 42.9266 223.305 43.0381 223.114 43.1273C222.922 43.2121 222.717 43.2745 222.503 43.3102C222.289 43.3459 222.084 43.3638 221.888 43.3638V43.3593ZM219.312 38.5233C219.432 38.5233 219.526 38.4965 219.593 38.443C219.66 38.3894 219.709 38.318 219.744 38.2333C219.78 38.1485 219.802 38.0548 219.807 37.9478C219.811 37.8407 219.816 37.747 219.816 37.6533V37.2518C219.816 37.0689 219.807 36.886 219.784 36.6941C219.762 36.5068 219.726 36.3417 219.668 36.2034C219.611 36.0651 219.526 35.9937 219.406 35.9937C219.218 35.9937 219.036 36.0294 218.871 36.1052C218.701 36.1811 218.554 36.2837 218.429 36.4086C218.305 36.5335 218.202 36.6852 218.131 36.8592C218.06 37.0332 218.019 37.2116 218.019 37.4035C218.019 37.5819 218.055 37.7381 218.131 37.8764C218.207 38.0102 218.305 38.1262 218.425 38.2244C218.545 38.3225 218.688 38.3939 218.839 38.443C218.995 38.492 219.151 38.5188 219.312 38.5188V38.5233Z" fill="#D1AD54"/>
<path d="M231.474 42.7883C230.837 42.7883 230.253 42.6902 229.727 42.4939C229.201 42.2976 228.733 42.0299 228.328 41.6864C227.922 41.3429 227.566 40.9414 227.267 40.4774C226.964 40.0134 226.719 39.5182 226.523 38.9829C226.327 38.452 226.18 37.8988 226.086 37.3188C225.992 36.7433 225.943 36.1722 225.943 35.6057C225.943 35.0391 225.992 34.4591 226.086 33.8791C226.18 33.2992 226.322 32.7371 226.518 32.1928C226.714 31.6485 226.955 31.1399 227.254 30.6626C227.552 30.1852 227.904 29.7658 228.314 29.4089C228.724 29.052 229.192 28.771 229.718 28.5702C230.244 28.3695 230.828 28.2668 231.474 28.2668C232.121 28.2668 232.718 28.365 233.253 28.5658C233.783 28.7665 234.26 29.0386 234.679 29.3822C235.098 29.7257 235.459 30.1361 235.762 30.609C236.065 31.0819 236.319 31.586 236.52 32.1303C236.72 32.6746 236.867 33.2367 236.965 33.8211C237.063 34.4056 237.112 34.9855 237.112 35.5655C237.112 36.1455 237.063 36.7121 236.965 37.292C236.867 37.872 236.716 38.4297 236.515 38.965C236.31 39.5004 236.056 40 235.749 40.464C235.441 40.928 235.076 41.334 234.661 41.6775C234.242 42.0255 233.77 42.2931 233.239 42.4894C232.709 42.6857 232.125 42.7839 231.479 42.7839L231.474 42.7883ZM231.519 38.2869C231.813 38.2869 232.054 38.1977 232.241 38.0192C232.428 37.8408 232.575 37.6222 232.682 37.3589C232.789 37.1002 232.865 36.8236 232.91 36.5291C232.95 36.2347 232.972 35.9759 232.972 35.7484C232.972 35.5343 232.95 35.2755 232.91 34.9677C232.869 34.6599 232.794 34.3654 232.687 34.0754C232.58 33.7855 232.437 33.5401 232.254 33.3393C232.072 33.1341 231.84 33.036 231.559 33.036C231.278 33.036 231.038 33.1252 230.837 33.3081C230.636 33.491 230.476 33.7141 230.36 33.9818C230.244 34.2494 230.155 34.5305 230.097 34.8249C230.039 35.1194 230.013 35.3826 230.013 35.6101C230.013 35.7618 230.021 35.9313 230.044 36.1187C230.066 36.3061 230.102 36.5024 230.151 36.7031C230.2 36.9039 230.262 37.0957 230.338 37.2876C230.414 37.4749 230.507 37.6445 230.614 37.7962C230.721 37.9478 230.85 38.0638 231.002 38.1531C231.153 38.2423 231.323 38.2869 231.51 38.2869H231.519Z" fill="#D1AD54"/>
<path d="M110.522 78.0546C110.197 78.0546 109.863 78.0457 109.515 78.0234C109.168 78.0055 108.838 77.9475 108.526 77.8539C108.125 77.7334 107.786 77.4256 107.505 76.9259C107.229 76.4262 106.997 75.8195 106.814 75.1012C106.632 74.383 106.489 73.6067 106.386 72.7724C106.284 71.9382 106.208 71.1218 106.164 70.3232C106.119 69.5291 106.088 68.7974 106.074 68.1327C106.061 67.468 106.057 66.9594 106.057 66.6025C106.057 66.0894 106.066 65.4381 106.088 64.6484C106.11 63.8588 106.141 62.9978 106.186 62.0609C106.23 61.1285 106.288 60.1648 106.36 59.1789C106.431 58.193 106.52 57.2427 106.632 56.3371C106.743 55.427 106.868 54.6016 107.01 53.8477C107.153 53.0982 107.313 52.5004 107.496 52.0498C107.652 51.6795 107.871 51.3717 108.156 51.1218C108.441 50.872 108.762 50.6668 109.114 50.5106C109.466 50.3545 109.845 50.2429 110.242 50.176C110.634 50.1091 111.013 50.0779 111.378 50.0779C111.69 50.0779 112.038 50.1091 112.426 50.1671C112.813 50.2251 113.183 50.3322 113.54 50.4839C113.896 50.6355 114.204 50.8318 114.471 51.0772C114.734 51.3226 114.899 51.6349 114.966 52.0141C114.979 52.0676 114.988 52.1435 114.993 52.2416C114.997 52.3398 115.011 52.4379 115.024 52.5361C115.037 52.6342 115.064 52.7279 115.1 52.8126C115.14 52.8974 115.189 52.9554 115.256 52.9822C115.438 52.9688 115.617 52.835 115.791 52.5762C115.964 52.3174 116.21 52.0364 116.526 51.7286C116.842 51.4207 117.261 51.1397 117.778 50.8898C118.295 50.64 118.982 50.5151 119.833 50.5151C120.805 50.5151 121.678 50.6712 122.463 50.988C123.247 51.3047 123.938 51.733 124.54 52.2818C125.141 52.826 125.663 53.464 126.099 54.1867C126.541 54.9095 126.897 55.6857 127.178 56.5155C127.454 57.3453 127.664 58.1974 127.798 59.0718C127.931 59.9462 128.003 60.8073 128.003 61.646C128.003 62.3152 127.954 63.0201 127.855 63.7473C127.757 64.4789 127.601 65.1972 127.392 65.911C127.178 66.6203 126.906 67.294 126.576 67.923C126.247 68.5565 125.841 69.1142 125.364 69.6005C124.887 70.0868 124.33 70.4749 123.697 70.756C123.064 71.037 122.347 71.1798 121.544 71.1798C121.001 71.1798 120.466 71.1039 119.944 70.9522C119.419 70.8006 118.933 70.631 118.478 70.4392C118.023 70.2474 117.613 70.0778 117.235 69.9262C116.86 69.7745 116.557 69.6986 116.321 69.6986C116.178 69.6986 116.067 69.7477 115.991 69.8458C115.915 69.944 115.875 70.0644 115.875 70.2117C115.875 70.5686 115.906 70.921 115.973 71.269C116.04 71.617 116.107 71.965 116.187 72.3174C116.263 72.6654 116.334 73.0178 116.401 73.3747C116.468 73.7316 116.499 74.0841 116.499 74.441C116.499 74.6908 116.477 74.9674 116.432 75.2708C116.388 75.5741 116.312 75.8374 116.21 76.0604C116.027 76.4664 115.701 76.801 115.229 77.0553C114.757 77.314 114.235 77.5148 113.669 77.6576C113.099 77.8003 112.533 77.9029 111.962 77.9654C111.392 78.0234 110.915 78.0546 110.527 78.0546H110.522ZM116.036 63.6625C116.41 63.6625 116.74 63.5867 117.025 63.435C117.31 63.2833 117.556 63.0781 117.761 62.8238C117.966 62.565 118.122 62.275 118.224 61.9449C118.327 61.6148 118.38 61.2757 118.38 60.9188C118.38 60.5619 118.327 60.2496 118.215 59.9418C118.104 59.634 117.948 59.3574 117.752 59.1209C117.551 58.8845 117.31 58.6926 117.025 58.5499C116.74 58.4071 116.423 58.3313 116.076 58.3313C115.933 58.3313 115.808 58.358 115.706 58.4116C115.603 58.4651 115.523 58.5632 115.474 58.706C115.407 58.8622 115.363 59.1209 115.34 59.4778C115.314 59.8347 115.296 60.2095 115.282 60.6021C115.269 60.9946 115.265 61.3828 115.274 61.7575C115.278 62.1323 115.282 62.4178 115.282 62.6141C115.282 62.9041 115.323 63.1495 115.407 63.3547C115.492 63.5599 115.701 63.6625 116.036 63.6625Z" fill="#D1AD54"/>
<path d="M140.794 77.8941C139.538 77.8941 138.388 77.7201 137.34 77.3721C136.293 77.0241 135.348 76.5379 134.506 75.9222C133.663 75.3021 132.923 74.5704 132.286 73.7228C131.649 72.8751 131.114 71.9427 130.695 70.93C130.276 69.9173 129.96 68.8466 129.746 67.7224C129.532 66.5981 129.425 65.456 129.425 64.2961C129.425 63.1361 129.523 62.0074 129.715 60.8698C129.911 59.7322 130.205 58.6436 130.597 57.6131C130.994 56.5781 131.493 55.6144 132.099 54.7222C132.705 53.8254 133.423 53.0536 134.243 52.4023C135.063 51.7509 135.999 51.2379 137.046 50.8631C138.094 50.4884 139.257 50.301 140.54 50.301C141.824 50.301 142.867 50.5286 143.763 50.9836C144.654 51.4387 145.39 52.0543 145.964 52.8395C146.539 53.6247 146.958 54.5303 147.226 55.5653C147.489 56.6004 147.622 57.6934 147.622 58.8533C147.622 60.1159 147.466 61.191 147.159 62.0699C146.847 62.9532 146.392 63.667 145.791 64.2113C145.189 64.7556 144.445 65.1571 143.558 65.4069C142.671 65.6568 141.646 65.7817 140.482 65.7817C140.313 65.7817 140.117 65.7995 139.89 65.8308C139.662 65.862 139.448 65.92 139.248 66.0003C139.047 66.0806 138.878 66.1921 138.744 66.3349C138.611 66.4777 138.539 66.6695 138.539 66.9059C138.539 67.1959 138.633 67.4368 138.82 67.6376C139.007 67.8339 139.234 67.9945 139.497 68.1105C139.76 68.2309 140.046 68.3112 140.34 68.3559C140.638 68.4005 140.888 68.4272 141.097 68.4272C141.512 68.4272 141.94 68.3648 142.39 68.2399C142.836 68.1149 143.277 67.9811 143.709 67.8339C144.142 67.6911 144.561 67.5528 144.962 67.4279C145.363 67.303 145.719 67.2405 146.027 67.2405C146.375 67.2405 146.7 67.3476 146.998 67.5662C147.297 67.7848 147.569 68.0614 147.814 68.4049C148.059 68.7484 148.278 69.1366 148.465 69.5693C148.652 70.0021 148.812 70.4393 148.951 70.872C149.089 71.3048 149.187 71.7241 149.249 72.1256C149.312 72.5272 149.347 72.8662 149.347 73.1428C149.347 73.5889 149.28 74.0395 149.151 74.4946C149.022 74.9496 148.75 75.3065 148.336 75.5698C147.235 76.2791 146.031 76.8457 144.717 77.2695C143.402 77.6889 142.096 77.903 140.786 77.903L140.794 77.8941ZM139.395 61.9227C139.591 61.9227 139.818 61.8736 140.086 61.7755C140.349 61.6773 140.607 61.5479 140.852 61.3918C141.097 61.2356 141.307 61.0483 141.485 60.8386C141.659 60.6289 141.748 60.4192 141.748 60.2051C141.748 59.9419 141.708 59.6563 141.623 59.3485C141.539 59.0407 141.418 58.7552 141.262 58.4875C141.106 58.2243 140.91 58.0057 140.67 57.8272C140.429 57.6488 140.157 57.5595 139.845 57.5595C139.56 57.5595 139.306 57.6577 139.079 57.854C138.851 58.0503 138.664 58.2957 138.517 58.5856C138.37 58.8756 138.254 59.1835 138.178 59.5047C138.102 59.8259 138.062 60.1114 138.062 60.3612C138.062 60.8207 138.16 61.1955 138.361 61.4855C138.562 61.7755 138.909 61.9182 139.399 61.9182L139.395 61.9227Z" fill="#D1AD54"/>
<path d="M166.693 78.0548C166.381 78.0548 166.033 78.0235 165.646 77.9655C165.258 77.9075 164.884 77.8005 164.523 77.6488C164.162 77.4971 163.845 77.2963 163.582 77.0465C163.315 76.7967 163.159 76.4888 163.105 76.1185C163.092 76.0516 163.087 75.9669 163.087 75.8598C163.087 75.7527 163.079 75.6546 163.056 75.552C163.038 75.4538 163.012 75.3646 162.98 75.2843C162.949 75.204 162.891 75.1549 162.816 75.1281C162.646 75.1415 162.468 75.2754 162.281 75.5341C162.094 75.7929 161.839 76.0739 161.523 76.3818C161.207 76.6896 160.792 76.9751 160.28 77.2294C159.767 77.4882 159.094 77.6131 158.252 77.6131C157.28 77.6131 156.406 77.4569 155.622 77.1402C154.838 76.8234 154.142 76.3951 153.536 75.8464C152.93 75.3021 152.404 74.6597 151.963 73.9325C151.522 73.2009 151.161 72.4201 150.875 71.5948C150.59 70.765 150.381 69.9129 150.247 69.0385C150.109 68.1641 150.042 67.303 150.042 66.4643C150.042 65.7951 150.091 65.0902 150.189 64.3631C150.287 63.6359 150.443 62.9131 150.653 62.2127C150.867 61.5078 151.143 60.8386 151.477 60.2007C151.811 59.5627 152.221 59.005 152.698 58.5232C153.175 58.0414 153.728 57.6622 154.356 57.3767C154.985 57.0956 155.698 56.9529 156.5 56.9529C157.044 56.9529 157.574 57.0287 158.091 57.1804C158.608 57.3321 159.098 57.5016 159.558 57.6934C160.017 57.8853 160.436 58.0548 160.81 58.2065C161.184 58.3582 161.496 58.434 161.741 58.434C161.884 58.434 161.995 58.3805 162.071 58.2779C162.147 58.1708 162.187 58.0459 162.187 57.9031C162.187 57.573 162.156 57.2384 162.089 56.8949C162.022 56.5513 161.951 56.2078 161.875 55.8598C161.799 55.5119 161.728 55.1594 161.661 54.8025C161.594 54.4456 161.563 54.0843 161.563 53.7184C161.563 53.4686 161.585 53.1875 161.63 52.8797C161.675 52.5719 161.75 52.3042 161.853 52.0811C162.036 51.6752 162.361 51.3406 162.833 51.0863C163.306 50.8275 163.827 50.6268 164.393 50.4751C164.964 50.3234 165.53 50.2163 166.1 50.1583C166.671 50.1003 167.148 50.0691 167.535 50.0691C167.861 50.0691 168.195 50.078 168.543 50.1003C168.89 50.1182 169.22 50.1762 169.532 50.2698C169.933 50.3903 170.272 50.7026 170.553 51.2067C170.829 51.7153 171.061 52.3265 171.244 53.0448C171.426 53.763 171.569 54.5438 171.671 55.3825C171.774 56.2257 171.85 57.0421 171.894 57.8407C171.939 58.6392 171.97 59.3664 171.983 60.0311C171.997 60.6959 172.001 61.2045 172.001 61.5614C172.001 62.0744 171.992 62.7258 171.975 63.5154C171.957 64.3051 171.921 65.1661 171.876 66.094C171.832 67.022 171.77 67.9812 171.694 68.9671C171.618 69.953 171.524 70.8988 171.422 71.8C171.319 72.7012 171.195 73.5265 171.052 74.276C170.909 75.0255 170.749 75.6233 170.566 76.0739C170.41 76.4442 170.192 76.7565 169.907 77.0108C169.621 77.2696 169.3 77.4748 168.948 77.6309C168.592 77.7871 168.217 77.9031 167.825 77.9655C167.428 78.0324 167.054 78.0637 166.689 78.0637L166.693 78.0548ZM161.942 69.1277C162.16 69.1277 162.334 69.0786 162.455 68.9805C162.579 68.8823 162.673 68.753 162.735 68.5968C162.798 68.4407 162.838 68.2667 162.851 68.0748C162.865 67.883 162.869 67.7046 162.869 67.5306V66.79C162.869 66.4554 162.851 66.1119 162.811 65.7639C162.771 65.4159 162.7 65.1125 162.597 64.8538C162.495 64.595 162.33 64.4701 162.111 64.4701C161.764 64.4701 161.434 64.5415 161.122 64.6753C160.81 64.8136 160.538 65.001 160.306 65.2375C160.075 65.4739 159.887 65.7505 159.754 66.0673C159.62 66.384 159.549 66.7186 159.549 67.0755C159.549 67.4057 159.615 67.6956 159.754 67.9455C159.887 68.1953 160.07 68.4094 160.297 68.5879C160.525 68.7663 160.779 68.9002 161.064 68.9939C161.349 69.0876 161.639 69.1322 161.938 69.1322L161.942 69.1277Z" fill="#D1AD54"/>
<path d="M189.414 77.8361C189.116 77.8361 188.781 77.8049 188.407 77.7469C188.033 77.6889 187.672 77.5863 187.328 77.4391C186.985 77.2963 186.687 77.1 186.437 76.8547C186.183 76.6093 186.031 76.3059 185.982 75.9356C185.969 75.8687 185.965 75.7884 185.965 75.6903C185.965 75.5921 185.956 75.494 185.933 75.3958C185.916 75.2977 185.889 75.2084 185.858 75.1281C185.826 75.0478 185.777 74.9988 185.711 74.972C185.541 74.9854 185.372 75.1192 185.198 75.369C185.024 75.6189 184.783 75.8955 184.48 76.1988C184.177 76.5022 183.781 76.7788 183.286 77.0286C182.796 77.2785 182.141 77.4034 181.325 77.4034C180.175 77.4034 179.181 77.1714 178.348 76.7119C177.514 76.2524 176.828 75.6367 176.293 74.8649C175.758 74.0931 175.362 73.2142 175.107 72.2194C174.853 71.2245 174.729 70.2029 174.729 69.15C174.729 68.5968 174.769 68.0124 174.853 67.3923C174.938 66.7721 175.072 66.1565 175.259 65.5364C175.446 64.9162 175.687 64.3274 175.977 63.7608C176.266 63.1942 176.618 62.6901 177.024 62.2484C177.43 61.8067 177.902 61.4587 178.432 61.2C178.963 60.9412 179.556 60.8163 180.215 60.8163C180.63 60.8163 181.044 60.852 181.459 60.9234C181.873 60.9948 182.288 61.0305 182.702 61.0305C183.076 61.0305 183.366 60.9234 183.576 60.7048C183.781 60.4862 183.888 60.1962 183.888 59.8259C183.888 59.5226 183.816 59.2861 183.674 59.1166C183.531 58.947 183.353 58.8132 183.139 58.724C182.925 58.6303 182.693 58.5768 182.439 58.5545C182.185 58.5366 181.944 58.5232 181.713 58.5232C181.271 58.5232 180.852 58.5812 180.451 58.7017C180.05 58.8221 179.671 58.9515 179.315 59.0987C178.958 59.2415 178.62 59.3753 178.294 59.4913C177.969 59.6118 177.661 59.6698 177.363 59.6698C177.015 59.6698 176.699 59.5761 176.422 59.3932C176.146 59.2103 175.896 58.9694 175.687 58.6704C175.473 58.376 175.29 58.0369 175.134 57.6622C174.978 57.2874 174.853 56.9038 174.755 56.5156C174.657 56.1275 174.586 55.7483 174.541 55.3825C174.497 55.0122 174.475 54.691 174.475 54.4144C174.475 53.8612 174.631 53.3794 174.938 52.9645C175.25 52.5496 175.651 52.1882 176.141 51.8804C176.632 51.5725 177.189 51.3138 177.808 51.1086C178.428 50.9033 179.056 50.7383 179.689 50.6134C180.322 50.4884 180.924 50.3992 181.494 50.3457C182.065 50.2921 182.551 50.2654 182.952 50.2654C184.387 50.2654 185.751 50.4617 187.034 50.8498C188.322 51.2379 189.468 51.8179 190.471 52.5853C191.473 53.3571 192.298 54.3162 192.944 55.4672C193.59 56.6183 194 57.9566 194.165 59.4869C194.268 60.3702 194.335 61.2535 194.361 62.1413C194.388 63.0291 194.402 63.9169 194.402 64.7958C194.402 65.5185 194.384 66.384 194.353 67.3833C194.321 68.3827 194.254 69.4043 194.156 70.4438C194.058 71.4833 193.929 72.4871 193.769 73.4552C193.608 74.4233 193.399 75.2307 193.14 75.8732C192.998 76.2435 192.793 76.5513 192.521 76.8011C192.249 77.0509 191.941 77.2517 191.598 77.4034C191.255 77.5551 190.898 77.6621 190.52 77.7291C190.145 77.796 189.775 77.8272 189.414 77.8272V77.8361ZM185.109 70.02C185.421 70.02 185.612 69.9486 185.693 69.8014C185.768 69.6586 185.809 69.4445 185.809 69.1679L185.826 67.1157C185.826 67.0086 185.826 66.8881 185.817 66.7498C185.813 66.6115 185.791 66.4822 185.751 66.3662C185.711 66.2457 185.653 66.1476 185.577 66.0717C185.501 65.9914 185.381 65.9513 185.229 65.9513C184.904 65.9513 184.601 66.0093 184.307 66.1297C184.017 66.2502 183.758 66.4108 183.54 66.6115C183.322 66.8168 183.143 67.0577 183.014 67.3432C182.885 67.6242 182.818 67.941 182.818 68.2801C182.818 68.6191 182.885 68.9046 183.023 69.1277C183.157 69.3508 183.335 69.5292 183.549 69.6586C183.763 69.7924 184.004 69.8817 184.275 69.9352C184.547 69.9887 184.824 70.0155 185.109 70.0155V70.02Z" fill="#D1AD54"/>
<path d="M207.79 86.9551C207.429 86.9551 207.042 86.9373 206.636 86.906C206.23 86.8748 205.856 86.7856 205.522 86.6473C205.183 86.509 204.902 86.2993 204.679 86.0138C204.452 85.7327 204.341 85.3446 204.341 84.8583C204.341 84.6486 204.372 84.4166 204.43 84.1668C204.488 83.917 204.577 83.6894 204.702 83.4842C204.827 83.279 204.978 83.1095 205.165 82.9712C205.352 82.8329 205.571 82.7659 205.816 82.7659C206.101 82.7659 206.373 82.8284 206.632 82.9533C206.89 83.0782 207.175 83.1407 207.487 83.1407C207.617 83.1407 207.764 83.1273 207.924 83.1005C208.085 83.0738 208.236 83.0292 208.37 82.9622C208.503 82.8953 208.624 82.8106 208.717 82.7035C208.815 82.5964 208.864 82.4581 208.864 82.2886C208.864 82.1681 208.829 82.0744 208.758 82.0031C208.686 81.9317 208.597 81.8692 208.495 81.8157C208.392 81.7622 208.285 81.7265 208.174 81.7086C208.062 81.6908 207.964 81.6774 207.875 81.6774C207.657 81.6774 207.443 81.6997 207.242 81.7488C207.042 81.7934 206.832 81.8157 206.609 81.8157C206.052 81.8157 205.611 81.6729 205.281 81.3919C204.951 81.1108 204.786 80.6691 204.786 80.0803C204.786 79.6609 204.849 79.2281 204.969 78.7865C205.094 78.3448 205.223 77.9299 205.366 77.5329C203.828 77.1893 202.487 76.5871 201.35 75.726C200.214 74.865 199.269 73.8344 198.529 72.6344C197.785 71.4387 197.232 70.1137 196.871 68.6638C196.51 67.2139 196.327 65.7417 196.327 64.2427C196.327 63.163 196.425 62.07 196.617 60.9636C196.813 59.8572 197.107 58.7865 197.499 57.756C197.892 56.721 198.386 55.7573 198.975 54.8651C199.563 53.9683 200.254 53.1876 201.051 52.514C201.845 51.8448 202.745 51.3139 203.748 50.9257C204.751 50.5376 205.852 50.3413 207.055 50.3413C208.027 50.3413 208.976 50.4528 209.907 50.6759C210.839 50.899 211.695 51.247 212.479 51.7243C213.263 52.1972 213.945 52.8039 214.525 53.5401C215.104 54.2762 215.532 55.1595 215.804 56.1856C215.88 56.4756 215.92 56.77 215.92 57.0734C215.92 57.6266 215.782 58.1486 215.501 58.6348C215.225 59.1211 214.864 59.5449 214.422 59.9063C213.981 60.2677 213.495 60.5532 212.956 60.7629C212.421 60.9726 211.9 61.0796 211.396 61.0796C211.084 61.0796 210.821 61.0127 210.598 60.8833C210.38 60.754 210.184 60.5844 210.014 60.3792C209.845 60.174 209.689 59.9554 209.551 59.7189C209.408 59.4825 209.248 59.2639 209.065 59.0587C208.882 58.8534 208.677 58.6884 208.446 58.5545C208.214 58.4252 207.92 58.3582 207.572 58.3582C207.144 58.3582 206.801 58.5055 206.534 58.8044C206.266 59.0988 206.07 59.4557 205.932 59.8706C205.794 60.2855 205.705 60.7183 205.66 61.1733C205.615 61.6284 205.593 62.012 205.593 62.3288C205.593 62.592 205.611 62.9177 205.642 63.3058C205.673 63.6939 205.731 64.1044 205.816 64.5282C205.901 64.9565 206.012 65.3848 206.146 65.822C206.279 66.2592 206.444 66.6429 206.64 66.9864C206.837 67.3299 207.064 67.6065 207.331 67.8251C207.594 68.0437 207.902 68.1508 208.254 68.1508C208.628 68.1508 208.954 68.0437 209.234 67.834C209.511 67.6243 209.783 67.3879 210.05 67.1336C210.313 66.8748 210.598 66.6429 210.892 66.4332C211.191 66.2235 211.548 66.1164 211.958 66.1164C212.283 66.1164 212.644 66.1744 213.045 66.2949C213.446 66.4153 213.838 66.5759 214.217 66.7901C214.601 66.9998 214.939 67.2496 215.238 67.5306C215.537 67.8117 215.742 68.1151 215.857 68.4274C215.96 68.704 216.036 68.9984 216.08 69.3062C216.125 69.6141 216.147 69.9219 216.147 70.2253C216.147 71.1844 215.929 72.0767 215.487 72.902C215.046 73.7229 214.48 74.459 213.789 75.1015C213.099 75.7483 212.319 76.2837 211.45 76.712C210.585 77.1403 209.725 77.4347 208.869 77.5909C208.829 77.6712 208.78 77.7782 208.722 77.9165C208.664 78.0548 208.602 78.1976 208.539 78.3404C208.472 78.4831 208.419 78.6214 208.374 78.7552C208.33 78.8846 208.307 78.9917 208.307 79.072C208.307 79.1657 208.361 79.2281 208.463 79.2594C208.566 79.2906 208.686 79.3129 208.824 79.3174C208.958 79.3218 209.096 79.3174 209.23 79.3085C209.368 79.2951 209.462 79.2906 209.511 79.2906C209.988 79.2906 210.447 79.3531 210.888 79.478C211.329 79.6029 211.717 79.7947 212.06 80.049C212.403 80.3078 212.68 80.6334 212.885 81.026C213.09 81.4186 213.197 81.8871 213.197 82.4269C213.197 83.163 213.036 83.8099 212.711 84.372C212.385 84.9297 211.967 85.4026 211.45 85.7818C210.933 86.161 210.353 86.451 209.711 86.6517C209.07 86.848 208.428 86.9462 207.781 86.9462L207.79 86.9551Z" fill="#D1AD54"/>
<path d="M227.601 77.0063C226.425 77.0063 225.351 76.8234 224.379 76.4621C223.407 76.1007 222.547 75.601 221.799 74.972C221.05 74.3385 220.395 73.5979 219.837 72.7414C219.28 71.8848 218.821 70.9658 218.46 69.9887C218.099 69.0073 217.827 67.9856 217.654 66.9194C217.48 65.8531 217.391 64.8003 217.391 63.7608C217.391 62.7213 217.48 61.6461 217.654 60.571C217.827 59.5002 218.095 58.4608 218.447 57.4614C218.803 56.4621 219.254 55.5208 219.806 54.6374C220.354 53.7541 221.01 52.9868 221.767 52.3265C222.525 51.6707 223.39 51.1532 224.357 50.7784C225.324 50.4037 226.407 50.2163 227.597 50.2163C228.787 50.2163 229.892 50.3992 230.877 50.7695C231.862 51.1398 232.736 51.6395 233.507 52.2819C234.278 52.9199 234.942 53.6738 235.504 54.5438C236.065 55.4137 236.533 56.3461 236.899 57.3454C237.269 58.3448 237.54 59.3843 237.723 60.4639C237.906 61.5435 237.995 62.6142 237.995 63.6805C237.995 64.7467 237.906 65.7951 237.723 66.8703C237.54 67.941 237.264 68.9716 236.89 69.962C236.515 70.9479 236.043 71.8714 235.472 72.728C234.902 73.5845 234.233 74.3296 233.462 74.9675C232.691 75.6055 231.818 76.1052 230.842 76.4665C229.866 76.8279 228.783 77.0108 227.593 77.0108L227.601 77.0063ZM227.677 68.695C228.221 68.695 228.662 68.5299 229.005 68.1998C229.349 67.8696 229.62 67.4681 229.821 66.9863C230.022 66.5045 230.16 65.9959 230.24 65.4561C230.316 64.9163 230.356 64.4344 230.356 64.0151C230.356 63.618 230.316 63.1407 230.24 62.5741C230.164 62.0075 230.026 61.4588 229.834 60.9234C229.638 60.3925 229.375 59.9375 229.037 59.5627C228.702 59.188 228.274 59.0006 227.757 59.0006C227.24 59.0006 226.795 59.1701 226.429 59.5047C226.059 59.8393 225.765 60.2542 225.547 60.7494C225.328 61.2446 225.164 61.7621 225.061 62.3109C224.958 62.8551 224.905 63.3414 224.905 63.7608C224.905 64.0374 224.923 64.3497 224.963 64.6976C225.003 65.0456 225.065 65.407 225.159 65.7728C225.248 66.1431 225.364 66.5 225.507 66.848C225.649 67.196 225.819 67.5083 226.019 67.7849C226.22 68.0615 226.46 68.2801 226.737 68.4451C227.013 68.6102 227.33 68.6905 227.677 68.6905V68.695Z" fill="#D1AD54"/>
</g>
<defs>
<clipPath id="clip0_95_12">
<rect width="238" height="93" fill="white"/>
</clipPath>
</defs>
</svg>
